# xmcd
#
# Track frame offsets:
#	150
#	17624
#	37790
#	55891
#	74759
#	92251
#	105059
#	121789
#	152838
#	169807
#
# Disc length: 2675 seconds
#
# Revision: 0
# Processed by: cddbd v1.5.2PL0 Copyright (c) Steve Scherf et al.
# Submitted via: dBpowerAMP V4.0
#
DISCID=6c0a710a
DTITLE=Bovine Social Club - Bovine Social Club
DYEAR=2012
DGENRE=Alt. Country
TTITLE0=The Rayban Song
TTITLE1=Picnics
TTITLE2=Banjo Gini
TTITLE3=Stuck in Colorado
TTITLE4=Carefaul as You Go
TTITLE5=Pickin Jamboree
TTITLE6=Twelve Years in a Jar
TTITLE7=Saweet
TTITLE8=Ninety Miles an Hour
TTITLE9=Naked Now
EXTD=
EXTT0=
EXTT1=
EXTT2=
EXTT3=
EXTT4=
EXTT5=
EXTT6=
EXTT7=
EXTT8=
EXTT9=
PLAYORDER=
